<svg xmlns="http://www.w3.org/2000/svg" viewBox="0 64 1440 256">
  <path fill="#ff5500" fill-opacity="1" d="M0,64L24,101.3C48,139,96,213,144,224C192,235,240,181,288,170.7C336,160,384,192,432,208C480,224,528,224,576,208C624,192,672,160,720,138.7C768,117,816,107,864,117.3C912,128,960,160,1008,149.3C1056,139,1104,85,1152,85.3C1200,85,1248,139,1296,160C1344,181,1392,171,1416,165.3L1440,160L1440,320L1416,320C1392,320,1344,320,1296,320C1248,320,1200,320,1152,320C1104,320,1056,320,1008,320C960,320,912,320,864,320C816,320,768,320,720,320C672,320,624,320,576,320C528,320,480,320,432,320C384,320,336,320,288,320C240,320,192,320,144,320C96,320,48,320,24,320L0,320Z"/>
</svg>