<?xml version="1.0" standalone="no"?><svg xmlns="http://www.w3.org/2000/svg" viewBox="0 0 1440 320"><path fill="#ff5500" fill-opacity="1" d="M0,224L24,224C48,224,96,224,144,202.7C192,181,240,139,288,133.3C336,128,384,160,432,149.3C480,139,528,85,576,85.3C624,85,672,139,720,154.7C768,171,816,149,864,138.7C912,128,960,128,1008,154.7C1056,181,1104,235,1152,234.7C1200,235,1248,181,1296,144C1344,107,1392,85,1416,74.7L1440,64L1440,320L1416,320C1392,320,1344,320,1296,320C1248,320,1200,320,1152,320C1104,320,1056,320,1008,320C960,320,912,320,864,320C816,320,768,320,720,320C672,320,624,320,576,320C528,320,480,320,432,320C384,320,336,320,288,320C240,320,192,320,144,320C96,320,48,320,24,320L0,320Z"></path></svg>